<svg xmlns="http://www.w3.org/2000/svg" xmlns:xlink="http://www.w3.org/1999/xlink" width="1080" zoomAndPan="magnify" viewBox="0 0 810 809.999993" height="1080" preserveAspectRatio="xMidYMid meet" version="1.0"><defs><g/><clipPath id="d6d6019e3a"><path d="M 139.101562 173.136719 L 162.601562 173.136719 L 162.601562 196.636719 L 139.101562 196.636719 Z M 139.101562 173.136719 " clip-rule="nonzero"/></clipPath><clipPath id="d5434b30f5"><path d="M 139.101562 196.636719 C 139.101562 190.445312 141.609375 184.394531 145.984375 180.019531 C 150.363281 175.644531 156.414062 173.136719 162.601562 173.136719 L 162.601562 185.125 C 159.570312 185.125 156.605469 186.351562 154.460938 188.496094 C 152.320312 190.640625 151.089844 193.605469 151.089844 196.636719 Z M 139.101562 196.636719 " clip-rule="nonzero"/></clipPath><clipPath id="c374158e92"><path d="M 0.101562 0.136719 L 23.601562 0.136719 L 23.601562 23.636719 L 0.101562 23.636719 Z M 0.101562 0.136719 " clip-rule="nonzero"/></clipPath><clipPath id="532bdd89b6"><path d="M 0.101562 23.636719 C 0.101562 17.445312 2.609375 11.394531 6.984375 7.019531 C 11.363281 2.644531 17.414062 0.136719 23.601562 0.136719 L 23.601562 12.125 C 20.570312 12.125 17.605469 13.351562 15.460938 15.496094 C 13.320312 17.640625 12.089844 20.605469 12.089844 23.636719 Z M 0.101562 23.636719 " clip-rule="nonzero"/></clipPath><clipPath id="ae8aa795c7"><rect x="0" width="24" y="0" height="24"/></clipPath><clipPath id="afa3d5fe91"><path d="M 294.496094 173.136719 L 317.996094 173.136719 L 317.996094 196.636719 L 294.496094 196.636719 Z M 294.496094 173.136719 " clip-rule="nonzero"/></clipPath><clipPath id="3b36e30fdc"><path d="M 294.496094 173.136719 C 300.6875 173.136719 306.738281 175.644531 311.113281 180.019531 C 315.488281 184.394531 317.996094 190.445312 317.996094 196.636719 L 306.007812 196.636719 C 306.007812 193.605469 304.78125 190.640625 302.636719 188.496094 C 300.492188 186.351562 297.527344 185.125 294.496094 185.125 Z M 294.496094 173.136719 " clip-rule="nonzero"/></clipPath><clipPath id="e4c83a5ea9"><path d="M 0.496094 0.136719 L 23.996094 0.136719 L 23.996094 23.636719 L 0.496094 23.636719 Z M 0.496094 0.136719 " clip-rule="nonzero"/></clipPath><clipPath id="d9c28e1352"><path d="M 0.496094 0.136719 C 6.6875 0.136719 12.738281 2.644531 17.113281 7.019531 C 21.488281 11.394531 23.996094 17.445312 23.996094 23.636719 L 12.007812 23.636719 C 12.007812 20.605469 10.78125 17.640625 8.636719 15.496094 C 6.492188 13.351562 3.527344 12.125 0.496094 12.125 Z M 0.496094 0.136719 " clip-rule="nonzero"/></clipPath><clipPath id="e168bc6d73"><rect x="0" width="24" y="0" height="24"/></clipPath><clipPath id="1921b2f8e0"><path d="M 139.101562 423.011719 L 162.601562 423.011719 L 162.601562 446.511719 L 139.101562 446.511719 Z M 139.101562 423.011719 " clip-rule="nonzero"/></clipPath><clipPath id="556898c289"><path d="M 162.601562 446.511719 C 156.414062 446.511719 150.363281 444.003906 145.984375 439.628906 C 141.609375 435.253906 139.101562 429.199219 139.101562 423.011719 L 151.089844 423.011719 C 151.089844 426.042969 152.320312 429.007812 154.460938 431.152344 C 156.605469 433.296875 159.570312 434.523438 162.601562 434.523438 Z M 162.601562 446.511719 " clip-rule="nonzero"/></clipPath><clipPath id="7648fb312f"><path d="M 0.101562 0.0117188 L 23.601562 0.0117188 L 23.601562 23.511719 L 0.101562 23.511719 Z M 0.101562 0.0117188 " clip-rule="nonzero"/></clipPath><clipPath id="cf9fec700a"><path d="M 23.601562 23.511719 C 17.414062 23.511719 11.363281 21.003906 6.984375 16.628906 C 2.609375 12.253906 0.101562 6.199219 0.101562 0.0117188 L 12.089844 0.0117188 C 12.089844 3.042969 13.320312 6.007812 15.460938 8.152344 C 17.605469 10.296875 20.570312 11.523438 23.601562 11.523438 Z M 23.601562 23.511719 " clip-rule="nonzero"/></clipPath><clipPath id="ce85a4e20b"><rect x="0" width="24" y="0" height="24"/></clipPath><clipPath id="16bb18076e"><path d="M 294.496094 423.011719 L 317.996094 423.011719 L 317.996094 446.511719 L 294.496094 446.511719 Z M 294.496094 423.011719 " clip-rule="nonzero"/></clipPath><clipPath id="415624af1e"><path d="M 317.996094 423.011719 C 317.996094 429.199219 315.488281 435.253906 311.113281 439.628906 C 306.738281 444.003906 300.6875 446.511719 294.496094 446.511719 L 294.496094 434.523438 C 297.527344 434.523438 300.492188 433.296875 302.636719 431.152344 C 304.78125 429.007812 306.007812 426.042969 306.007812 423.011719 Z M 317.996094 423.011719 " clip-rule="nonzero"/></clipPath><clipPath id="46548826c8"><path d="M 0.496094 0.0117188 L 23.996094 0.0117188 L 23.996094 23.511719 L 0.496094 23.511719 Z M 0.496094 0.0117188 " clip-rule="nonzero"/></clipPath><clipPath id="e4493f4193"><path d="M 23.996094 0.0117188 C 23.996094 6.199219 21.488281 12.253906 17.113281 16.628906 C 12.738281 21.003906 6.6875 23.511719 0.496094 23.511719 L 0.496094 11.523438 C 3.527344 11.523438 6.492188 10.296875 8.636719 8.152344 C 10.78125 6.007812 12.007812 3.042969 12.007812 0.0117188 Z M 23.996094 0.0117188 " clip-rule="nonzero"/></clipPath><clipPath id="11a32832a9"><rect x="0" width="24" y="0" height="24"/></clipPath><clipPath id="188543171b"><path d="M 459 200 L 520 200 L 520 271 L 459 271 Z M 459 200 " clip-rule="nonzero"/></clipPath><clipPath id="65b862a6c9"><path d="M 452.597656 263.402344 L 460.113281 200.535156 L 522.980469 208.050781 L 515.464844 270.917969 Z M 452.597656 263.402344 " clip-rule="nonzero"/></clipPath><clipPath id="cf2a538b0e"><path d="M 515.464844 270.917969 C 498.910156 268.9375 483.519531 260.296875 473.210938 247.191406 C 462.90625 234.082031 458.132812 217.089844 460.113281 200.535156 L 492.1875 204.367188 C 491.21875 212.480469 493.554688 220.800781 498.601562 227.222656 C 503.652344 233.640625 511.191406 237.875 519.300781 238.84375 Z M 515.464844 270.917969 " clip-rule="nonzero"/></clipPath><clipPath id="47f62c60c5"><path d="M 0 0.398438 L 60.359375 0.398438 L 60.359375 70.960938 L 0 70.960938 Z M 0 0.398438 " clip-rule="nonzero"/></clipPath><clipPath id="60be4e0ea5"><path d="M -6.402344 63.402344 L 1.113281 0.535156 L 63.980469 8.050781 L 56.464844 70.917969 Z M -6.402344 63.402344 " clip-rule="nonzero"/></clipPath><clipPath id="8a3097aec6"><path d="M 56.464844 70.917969 C 39.910156 68.9375 24.519531 60.296875 14.210938 47.191406 C 3.90625 34.082031 -0.867188 17.089844 1.113281 0.535156 L 33.1875 4.367188 C 32.21875 12.480469 34.554688 20.800781 39.601562 27.222656 C 44.652344 33.640625 52.191406 37.875 60.300781 38.84375 Z M 56.464844 70.917969 " clip-rule="nonzero"/></clipPath><clipPath id="493be53265"><rect x="0" width="61" y="0" height="71"/></clipPath><clipPath id="68f033d443"><path d="M 503 243 L 577 243 L 577 300 L 503 300 Z M 503 243 " clip-rule="nonzero"/></clipPath><clipPath id="da2b25d1b9"><path d="M 516.097656 310.546875 L 503.296875 250.414062 L 563.429688 237.613281 L 576.226562 297.746094 Z M 516.097656 310.546875 " clip-rule="nonzero"/></clipPath><clipPath id="bf4899a78c"><path d="M 576.226562 297.746094 C 560.390625 301.117188 543.542969 298 529.960938 289.183594 C 516.378906 280.371094 506.667969 266.25 503.296875 250.414062 L 533.972656 243.882812 C 535.625 251.640625 540.382812 258.558594 547.035156 262.875 C 553.6875 267.191406 561.941406 268.71875 569.699219 267.066406 Z M 576.226562 297.746094 " clip-rule="nonzero"/></clipPath><clipPath id="c6460588ec"><path d="M 0.28125 0.839844 L 73.238281 0.839844 L 73.238281 57 L 0.28125 57 Z M 0.28125 0.839844 " clip-rule="nonzero"/></clipPath><clipPath id="05a9308d55"><path d="M 13.097656 67.546875 L 0.296875 7.414062 L 60.429688 -5.386719 L 73.226562 54.746094 Z M 13.097656 67.546875 " clip-rule="nonzero"/></clipPath><clipPath id="964d92ba5a"><path d="M 73.226562 54.746094 C 57.390625 58.117188 40.542969 55 26.960938 46.183594 C 13.378906 37.371094 3.667969 23.25 0.296875 7.414062 L 30.972656 0.882812 C 32.625 8.640625 37.382812 15.558594 44.035156 19.875 C 50.6875 24.191406 58.941406 25.71875 66.699219 24.066406 Z M 73.226562 54.746094 " clip-rule="nonzero"/></clipPath><clipPath id="e4868411de"><rect x="0" width="74" y="0" height="57"/></clipPath><clipPath id="c721bf2880"><path d="M 412 181 L 491 181 L 491 225 L 412 225 Z M 412 181 " clip-rule="nonzero"/></clipPath><clipPath id="a9cec442d0"><path d="M 462.34375 160.84375 L 490.792969 210.300781 L 441.335938 238.75 L 412.886719 189.292969 Z M 462.34375 160.84375 " clip-rule="nonzero"/></clipPath><clipPath id="cbaaef34e1"><path d="M 412.886719 189.292969 C 425.910156 181.800781 441.683594 179.75 456.191406 183.660156 C 470.699219 187.574219 483.300781 197.273438 490.792969 210.300781 L 465.5625 224.8125 C 461.890625 218.433594 455.71875 213.683594 448.613281 211.765625 C 441.507812 209.847656 433.78125 210.855469 427.402344 214.523438 Z M 412.886719 189.292969 " clip-rule="nonzero"/></clipPath><clipPath id="4fff9d9f0a"><path d="M 0.800781 0 L 78.800781 0 L 78.800781 43.878906 L 0.800781 43.878906 Z M 0.800781 0 " clip-rule="nonzero"/></clipPath><clipPath id="59fbf95aad"><path d="M 50.34375 -20.15625 L 78.792969 29.300781 L 29.335938 57.75 L 0.886719 8.292969 Z M 50.34375 -20.15625 " clip-rule="nonzero"/></clipPath><clipPath id="676e0ad15a"><path d="M 0.886719 8.292969 C 13.910156 0.800781 29.683594 -1.25 44.191406 2.660156 C 58.699219 6.574219 71.300781 16.273438 78.792969 29.300781 L 53.5625 43.8125 C 49.890625 37.433594 43.71875 32.683594 36.613281 30.765625 C 29.507812 28.847656 21.78125 29.855469 15.402344 33.523438 Z M 0.886719 8.292969 " clip-rule="nonzero"/></clipPath><clipPath id="ea4eb14dde"><rect x="0" width="79" y="0" height="44"/></clipPath><clipPath id="798b23dbf2"><path d="M 440 146 L 488 146 L 488 190 L 440 190 Z M 440 146 " clip-rule="nonzero"/></clipPath><clipPath id="456a3a6dce"><path d="M 443.425781 192.03125 L 440.597656 147.667969 L 484.964844 144.84375 L 487.789062 189.207031 Z M 443.425781 192.03125 " clip-rule="nonzero"/></clipPath><clipPath id="ad3a1ed758"><path d="M 487.789062 189.207031 C 476.105469 189.953125 464.378906 185.945312 455.589844 178.210938 C 446.804688 170.476562 441.34375 159.351562 440.597656 147.667969 L 463.230469 146.226562 C 463.597656 151.949219 466.269531 157.398438 470.574219 161.1875 C 474.878906 164.976562 480.625 166.9375 486.347656 166.574219 Z M 487.789062 189.207031 " clip-rule="nonzero"/></clipPath><clipPath id="8b4c4aa5c2"><path d="M 0.398438 0.160156 L 47.921875 0.160156 L 47.921875 44 L 0.398438 44 Z M 0.398438 0.160156 " clip-rule="nonzero"/></clipPath><clipPath id="e32d4f0728"><path d="M 3.425781 46.03125 L 0.597656 1.667969 L 44.964844 -1.15625 L 47.789062 43.207031 Z M 3.425781 46.03125 " clip-rule="nonzero"/></clipPath><clipPath id="117251d383"><path d="M 47.789062 43.207031 C 36.105469 43.953125 24.378906 39.945312 15.589844 32.210938 C 6.804688 24.476562 1.34375 13.351562 0.597656 1.667969 L 23.230469 0.226562 C 23.597656 5.949219 26.269531 11.398438 30.574219 15.1875 C 34.878906 18.976562 40.625 20.9375 46.347656 20.574219 Z M 47.789062 43.207031 " clip-rule="nonzero"/></clipPath><clipPath id="26ff63e1df"><rect x="0" width="48" y="0" height="44"/></clipPath><clipPath id="25b07f53d3"><path d="M 470 166 L 505 166 L 505 184 L 470 184 Z M 470 166 " clip-rule="nonzero"/></clipPath><clipPath id="0b18f76c3d"><path d="M 488.667969 156.679688 L 504.042969 175.167969 L 485.554688 190.539062 L 470.179688 172.050781 Z M 488.667969 156.679688 " clip-rule="nonzero"/></clipPath><clipPath id="d74f8bac06"><path d="M 470.179688 172.050781 C 475.050781 168.003906 481.449219 166.015625 487.757812 166.597656 C 494.0625 167.175781 499.992188 170.300781 504.042969 175.167969 L 494.609375 183.011719 C 492.625 180.625 489.722656 179.097656 486.632812 178.8125 C 483.542969 178.527344 480.410156 179.5 478.023438 181.484375 Z M 470.179688 172.050781 " clip-rule="nonzero"/></clipPath><clipPath id="f3e6c3bf99"><path d="M 0.160156 0 L 34.238281 0 L 34.238281 17.121094 L 0.160156 17.121094 Z M 0.160156 0 " clip-rule="nonzero"/></clipPath><clipPath id="ecba3a6b77"><path d="M 18.667969 -9.320312 L 34.042969 9.167969 L 15.554688 24.539062 L 0.179688 6.050781 Z M 18.667969 -9.320312 " clip-rule="nonzero"/></clipPath><clipPath id="817b118313"><path d="M 0.179688 6.050781 C 5.050781 2.003906 11.449219 0.015625 17.757812 0.597656 C 24.0625 1.175781 29.992188 4.300781 34.042969 9.167969 L 24.609375 17.011719 C 22.625 14.625 19.722656 13.097656 16.632812 12.8125 C 13.542969 12.527344 10.410156 13.5 8.023438 15.484375 Z M 0.179688 6.050781 " clip-rule="nonzero"/></clipPath><clipPath id="fa3a59097c"><rect x="0" width="35" y="0" height="18"/></clipPath><clipPath id="df43c2b6f0"><path d="M 475 167 L 507 167 L 507 183 L 475 183 Z M 475 167 " clip-rule="nonzero"/></clipPath><clipPath id="971bf4041b"><path d="M 492.058594 157.867188 L 506.539062 172.347656 L 489.515625 189.371094 L 475.035156 174.890625 Z M 492.058594 157.867188 " clip-rule="nonzero"/></clipPath><clipPath id="8578b9f9a0"><path d="M 475.058594 174.871094 C 479.535156 170.390625 485.457031 167.558594 491.320312 167.089844 C 497.183594 166.617188 502.726562 168.53125 506.539062 172.347656 L 497.863281 181.019531 C 495.996094 179.152344 493.28125 178.214844 490.410156 178.445312 C 487.539062 178.675781 484.636719 180.0625 482.445312 182.257812 Z M 475.058594 174.871094 " clip-rule="nonzero"/></clipPath><clipPath id="df228f0c21"><path d="M 0 0 L 31.640625 0 L 31.640625 15.398438 L 0 15.398438 Z M 0 0 " clip-rule="nonzero"/></clipPath><clipPath id="b55ea16b00"><path d="M 17.058594 -9.132812 L 31.539062 5.347656 L 14.515625 22.371094 L 0.0351562 7.890625 Z M 17.058594 -9.132812 " clip-rule="nonzero"/></clipPath><clipPath id="15a20d36ee"><path d="M 0.0585938 7.871094 C 4.535156 3.390625 10.457031 0.558594 16.320312 0.0898438 C 22.183594 -0.382812 27.726562 1.53125 31.539062 5.347656 L 22.863281 14.019531 C 20.996094 12.152344 18.28125 11.214844 15.410156 11.445312 C 12.539062 11.675781 9.636719 13.0625 7.445312 15.257812 Z M 0.0585938 7.871094 " clip-rule="nonzero"/></clipPath><clipPath id="ae47987510"><rect x="0" width="32" y="0" height="16"/></clipPath><clipPath id="5c48c1a255"><path d="M 496 168 L 514 168 L 514 199 L 496 199 Z M 496 168 " clip-rule="nonzero"/></clipPath><clipPath id="0c6bb9cd04"><path d="M 521.996094 181.011719 L 511.289062 198.464844 L 490.769531 185.875 L 501.476562 168.421875 Z M 521.996094 181.011719 " clip-rule="nonzero"/></clipPath><clipPath id="df4dfcbd00"><path d="M 501.503906 168.4375 C 506.902344 171.75 511.035156 176.847656 512.859375 182.441406 C 514.679688 188.03125 514.109375 193.867188 511.289062 198.464844 L 500.832031 192.050781 C 502.214844 189.796875 502.496094 186.9375 501.601562 184.199219 C 500.710938 181.460938 498.683594 178.964844 496.039062 177.339844 Z M 501.503906 168.4375 " clip-rule="nonzero"/></clipPath><clipPath id="ed51e6bc46"><path d="M 0 0.238281 L 18 0.238281 L 18 30.480469 L 0 30.480469 Z M 0 0.238281 " clip-rule="nonzero"/></clipPath><clipPath id="0394427179"><path d="M 25.996094 13.011719 L 15.289062 30.464844 L -5.230469 17.875 L 5.476562 0.421875 Z M 25.996094 13.011719 " clip-rule="nonzero"/></clipPath><clipPath id="1965e7cc66"><path d="M 5.503906 0.4375 C 10.902344 3.75 15.035156 8.847656 16.859375 14.441406 C 18.679688 20.03125 18.109375 25.867188 15.289062 30.464844 L 4.832031 24.050781 C 6.214844 21.796875 6.496094 18.9375 5.601562 16.199219 C 4.710938 13.460938 2.683594 10.964844 0.0390625 9.339844 Z M 5.503906 0.4375 " clip-rule="nonzero"/></clipPath><clipPath id="0efd3047c2"><rect x="0" width="18" y="0" height="31"/></clipPath><clipPath id="0dd1531146"><path d="M 481 191 L 544 191 L 544 257 L 481 257 Z M 481 191 " clip-rule="nonzero"/></clipPath><clipPath id="dc8757cc63"><path d="M 479.363281 254.367188 L 481.367188 191.085938 L 544.652344 193.089844 L 542.644531 256.375 Z M 479.363281 254.367188 " clip-rule="nonzero"/></clipPath><clipPath id="a045431082"><path d="M 542.644531 256.375 C 525.980469 255.847656 509.894531 248.578125 498.484375 236.421875 C 487.074219 224.261719 480.839844 207.75 481.367188 191.085938 L 513.652344 192.109375 C 513.394531 200.273438 516.449219 208.359375 522.039062 214.316406 C 527.628906 220.269531 535.503906 223.832031 543.667969 224.089844 Z M 542.644531 256.375 " clip-rule="nonzero"/></clipPath><clipPath id="3e68013c76"><path d="M 0 0.0390625 L 62.839844 0.0390625 L 62.839844 65.558594 L 0 65.558594 Z M 0 0.0390625 " clip-rule="nonzero"/></clipPath><clipPath id="2dc1f4493b"><path d="M -1.636719 63.367188 L 0.367188 0.0859375 L 63.652344 2.089844 L 61.644531 65.375 Z M -1.636719 63.367188 " clip-rule="nonzero"/></clipPath><clipPath id="7e1085a8ac"><path d="M 61.644531 65.375 C 44.980469 64.847656 28.894531 57.578125 17.484375 45.421875 C 6.074219 33.261719 -0.160156 16.75 0.367188 0.0859375 L 32.652344 1.109375 C 32.394531 9.273438 35.449219 17.359375 41.039062 23.316406 C 46.628906 29.269531 54.503906 32.832031 62.667969 33.089844 Z M 61.644531 65.375 " clip-rule="nonzero"/></clipPath><clipPath id="238fe42af9"><rect x="0" width="63" y="0" height="66"/></clipPath><clipPath id="70203e4dc2"><path d="M 535 223 L 555 223 L 555 233 L 535 233 Z M 535 223 " clip-rule="nonzero"/></clipPath><clipPath id="fbe9e106c4"><path d="M 547.304688 218.667969 L 554.054688 228.941406 L 541.976562 236.878906 L 535.226562 226.605469 Z M 547.304688 218.667969 " clip-rule="nonzero"/></clipPath><clipPath id="67d8125991"><path d="M 535.242188 226.597656 C 538.417969 224.507812 542.242188 223.5625 545.746094 224 C 549.25 224.4375 552.273438 226.234375 554.054688 228.941406 L 547.898438 232.984375 C 547.027344 231.660156 545.546875 230.777344 543.832031 230.566406 C 542.113281 230.351562 540.238281 230.8125 538.683594 231.835938 Z M 535.242188 226.597656 " clip-rule="nonzero"/></clipPath><clipPath id="640ae1cc33"><path d="M 0.199219 0.441406 L 19.160156 0.441406 L 19.160156 10 L 0.199219 10 Z M 0.199219 0.441406 " clip-rule="nonzero"/></clipPath><clipPath id="e7fd58b8db"><path d="M 12.304688 -4.332031 L 19.054688 5.941406 L 6.976562 13.878906 L 0.226562 3.605469 Z M 12.304688 -4.332031 " clip-rule="nonzero"/></clipPath><clipPath id="38bca6825c"><path d="M 0.242188 3.597656 C 3.417969 1.507812 7.242188 0.5625 10.746094 1 C 14.25 1.4375 17.273438 3.234375 19.054688 5.941406 L 12.898438 9.984375 C 12.027344 8.660156 10.546875 7.777344 8.832031 7.566406 C 7.113281 7.351562 5.238281 7.8125 3.683594 8.835938 Z M 0.242188 3.597656 " clip-rule="nonzero"/></clipPath><clipPath id="945d6e6995"><rect x="0" width="20" y="0" height="10"/></clipPath><clipPath id="9bfc9519a3"><path d="M 527 228 L 595 228 L 595 275 L 527 275 Z M 527 228 " clip-rule="nonzero"/></clipPath><clipPath id="dc75418ed6"><path d="M 542.65625 287.628906 L 527.496094 236.085938 L 579.035156 220.925781 L 594.199219 272.46875 Z M 542.65625 287.628906 " clip-rule="nonzero"/></clipPath><clipPath id="cde111173d"><path d="M 594.199219 272.46875 C 580.625 276.460938 565.734375 274.867188 553.3125 268.089844 C 540.890625 261.316406 531.488281 249.660156 527.496094 236.085938 L 553.789062 228.351562 C 555.746094 235 560.351562 240.710938 566.4375 244.03125 C 572.519531 247.347656 579.8125 248.128906 586.464844 246.171875 Z M 594.199219 272.46875 " clip-rule="nonzero"/></clipPath><clipPath id="243d35852d"><path d="M 0.28125 0.238281 L 67.238281 0.238281 L 67.238281 47 L 0.28125 47 Z M 0.28125 0.238281 " clip-rule="nonzero"/></clipPath><clipPath id="45d276a9e4"><path d="M 15.65625 59.628906 L 0.496094 8.085938 L 52.035156 -7.074219 L 67.199219 44.46875 Z M 15.65625 59.628906 " clip-rule="nonzero"/></clipPath><clipPath id="09627e2a73"><path d="M 67.199219 44.46875 C 53.625 48.460938 38.734375 46.867188 26.3125 40.089844 C 13.890625 33.316406 4.488281 21.660156 0.496094 8.085938 L 26.789062 0.351562 C 28.746094 7 33.351562 12.710938 39.4375 16.03125 C 45.519531 19.347656 52.8125 20.128906 59.464844 18.171875 Z M 67.199219 44.46875 " clip-rule="nonzero"/></clipPath><clipPath id="720d29d423"><rect x="0" width="68" y="0" height="47"/></clipPath><clipPath id="90a14db62c"><path d="M 475.0625 173.859375 L 511.417969 173.859375 L 511.417969 210.214844 L 475.0625 210.214844 Z M 475.0625 173.859375 " clip-rule="nonzero"/></clipPath><clipPath id="7ee97a933b"><path d="M 493.238281 173.859375 C 483.199219 173.859375 475.0625 182 475.0625 192.039062 C 475.0625 202.078125 483.199219 210.214844 493.238281 210.214844 C 503.277344 210.214844 511.417969 202.078125 511.417969 192.039062 C 511.417969 182 503.277344 173.859375 493.238281 173.859375 Z M 493.238281 173.859375 " clip-rule="nonzero"/></clipPath><clipPath id="8a88deb943"><path d="M 0.0625 0.859375 L 36.417969 0.859375 L 36.417969 37.214844 L 0.0625 37.214844 Z M 0.0625 0.859375 " clip-rule="nonzero"/></clipPath><clipPath id="05cfa705bd"><path d="M 18.238281 0.859375 C 8.199219 0.859375 0.0625 9 0.0625 19.039062 C 0.0625 29.078125 8.199219 37.214844 18.238281 37.214844 C 28.277344 37.214844 36.417969 29.078125 36.417969 19.039062 C 36.417969 9 28.277344 0.859375 18.238281 0.859375 Z M 18.238281 0.859375 " clip-rule="nonzero"/></clipPath><clipPath id="ba5fb36ad1"><rect x="0" width="37" y="0" height="38"/></clipPath><clipPath id="23a20fdc05"><path d="M 521.585938 227.765625 L 557.941406 227.765625 L 557.941406 264.121094 L 521.585938 264.121094 Z M 521.585938 227.765625 " clip-rule="nonzero"/></clipPath><clipPath id="1e85d7a6d6"><path d="M 539.761719 227.765625 C 529.722656 227.765625 521.585938 235.90625 521.585938 245.945312 C 521.585938 255.984375 529.722656 264.121094 539.761719 264.121094 C 549.800781 264.121094 557.941406 255.984375 557.941406 245.945312 C 557.941406 235.90625 549.800781 227.765625 539.761719 227.765625 Z M 539.761719 227.765625 " clip-rule="nonzero"/></clipPath><clipPath id="0a1eaec28d"><path d="M 0.585938 0.765625 L 36.941406 0.765625 L 36.941406 37.121094 L 0.585938 37.121094 Z M 0.585938 0.765625 " clip-rule="nonzero"/></clipPath><clipPath id="e70a8db488"><path d="M 18.761719 0.765625 C 8.722656 0.765625 0.585938 8.90625 0.585938 18.945312 C 0.585938 28.984375 8.722656 37.121094 18.761719 37.121094 C 28.800781 37.121094 36.941406 28.984375 36.941406 18.945312 C 36.941406 8.90625 28.800781 0.765625 18.761719 0.765625 Z M 18.761719 0.765625 " clip-rule="nonzero"/></clipPath><clipPath id="53519e0cbe"><rect x="0" width="37" y="0" height="38"/></clipPath><clipPath id="8fc2416250"><path d="M 406 508 L 445 508 L 445 572 L 406 572 Z M 406 508 " clip-rule="nonzero"/></clipPath><clipPath id="5693833f98"><path d="M 391.335938 552.058594 L 410.421875 508.777344 L 453.703125 527.863281 L 434.617188 571.144531 Z M 391.335938 552.058594 " clip-rule="nonzero"/></clipPath><clipPath id="71c0ef6ffb"><path d="M 434.617188 571.144531 C 423.21875 566.117188 414.109375 556.585938 409.605469 544.972656 C 405.097656 533.359375 405.394531 520.175781 410.421875 508.777344 L 432.503906 518.515625 C 430.042969 524.097656 429.894531 530.554688 432.101562 536.246094 C 434.308594 541.933594 438.773438 546.601562 444.355469 549.066406 Z M 434.617188 571.144531 " clip-rule="nonzero"/></clipPath><clipPath id="6ee8078963"><path d="M 0 0.558594 L 38.480469 0.558594 L 38.480469 63.199219 L 0 63.199219 Z M 0 0.558594 " clip-rule="nonzero"/></clipPath><clipPath id="9a6c0dbed8"><path d="M -14.664062 44.058594 L 4.421875 0.777344 L 47.703125 19.863281 L 28.617188 63.144531 Z M -14.664062 44.058594 " clip-rule="nonzero"/></clipPath><clipPath id="c8889f12ef"><path d="M 28.617188 63.144531 C 17.21875 58.117188 8.109375 48.585938 3.605469 36.972656 C -0.902344 25.359375 -0.605469 12.175781 4.421875 0.777344 L 26.503906 10.515625 C 24.042969 16.097656 23.894531 22.554688 26.101562 28.246094 C 28.308594 33.933594 32.773438 38.601562 38.355469 41.066406 Z M 28.617188 63.144531 " clip-rule="nonzero"/></clipPath><clipPath id="1be3df6109"><rect x="0" width="39" y="0" height="64"/></clipPath><clipPath id="a4a5e734ba"><path d="M 634 517 L 705 517 L 705 573 L 634 573 Z M 634 517 " clip-rule="nonzero"/></clipPath><clipPath id="e1aa3bb63f"><path d="M 693.9375 582.1875 L 634.175781 571.722656 L 644.640625 511.964844 L 704.398438 522.429688 Z M 693.9375 582.1875 " clip-rule="nonzero"/></clipPath><clipPath id="6e383ea6de"><path d="M 704.398438 522.429688 C 701.644531 538.167969 692.574219 552.441406 679.5 561.621094 C 666.421875 570.800781 649.914062 574.480469 634.175781 571.722656 L 639.515625 541.238281 C 647.226562 542.585938 655.308594 540.785156 661.714844 536.289062 C 668.121094 531.789062 672.5625 524.800781 673.914062 517.089844 Z M 704.398438 522.429688 " clip-rule="nonzero"/></clipPath><clipPath id="55e5f98a89"><path d="M 0.078125 0 L 70.398438 0 L 70.398438 56 L 0.078125 56 Z M 0.078125 0 " clip-rule="nonzero"/></clipPath><clipPath id="f86376bb64"><path d="M 59.9375 65.1875 L 0.175781 54.722656 L 10.640625 -5.035156 L 70.398438 5.429688 Z M 59.9375 65.1875 " clip-rule="nonzero"/></clipPath><clipPath id="97c98e4a0f"><path d="M 70.398438 5.429688 C 67.644531 21.167969 58.574219 35.441406 45.5 44.621094 C 32.421875 53.800781 15.914062 57.480469 0.175781 54.722656 L 5.515625 24.238281 C 13.226562 25.585938 21.308594 23.785156 27.714844 19.289062 C 34.121094 14.789062 38.5625 7.800781 39.914062 0.0898438 Z M 70.398438 5.429688 " clip-rule="nonzero"/></clipPath><clipPath id="67e100111c"><rect x="0" width="71" y="0" height="56"/></clipPath><clipPath id="2b5ed4d1c2"><path d="M 623 488 L 692 488 L 692 549 L 623 549 Z M 623 488 " clip-rule="nonzero"/></clipPath><clipPath id="d5aa83a390"><path d="M 685.84375 553.972656 L 623.355469 548.398438 L 628.929688 485.910156 L 691.417969 491.484375 Z M 685.84375 553.972656 " clip-rule="nonzero"/></clipPath><clipPath id="6339ee834e"><path d="M 691.417969 491.484375 C 689.949219 507.941406 681.847656 523.4375 669.175781 534.039062 C 656.5 544.636719 639.8125 549.867188 623.355469 548.398438 L 626.199219 516.519531 C 634.257812 517.238281 642.433594 514.675781 648.640625 509.484375 C 654.851562 504.292969 658.820312 496.703125 659.539062 488.640625 Z M 691.417969 491.484375 " clip-rule="nonzero"/></clipPath><clipPath id="f5142112e0"><path d="M 0.28125 0.398438 L 68.441406 0.398438 L 68.441406 61 L 0.28125 61 Z M 0.28125 0.398438 " clip-rule="nonzero"/></clipPath><clipPath id="52b4bb6cbc"><path d="M 62.84375 65.972656 L 0.355469 60.398438 L 5.929688 -2.089844 L 68.417969 3.484375 Z M 62.84375 65.972656 " clip-rule="nonzero"/></clipPath><clipPath id="bb0f38c779"><path d="M 68.417969 3.484375 C 66.949219 19.941406 58.847656 35.4375 46.175781 46.039062 C 33.5 56.636719 16.8125 61.867188 0.355469 60.398438 L 3.199219 28.519531 C 11.257812 29.238281 19.433594 26.675781 25.640625 21.484375 C 31.851562 16.292969 35.820312 8.703125 36.539062 0.640625 Z M 68.417969 3.484375 " clip-rule="nonzero"/></clipPath><clipPath id="8ba00a50ad"><rect x="0" width="69" y="0" height="61"/></clipPath></defs><rect x="-81" width="972" fill="#ffffff" y="-80.999999" height="971.999992" fill-opacity="1"/><rect x="-81" width="972" fill="#f8f3ef" y="-80.999999" height="971.999992" fill-opacity="1"/><path stroke-linecap="round" transform="matrix(0, 0.75, -0.75, 0, 151.508741, 134.830544)" fill="none" stroke-linejoin="miter" d="M 37.501984 37.501241 L 437.090546 37.501241 " stroke="#1f1f1f" stroke-width="75" stroke-opacity="1" stroke-miterlimit="4"/><path stroke-linecap="round" transform="matrix(0, 0.75, -0.75, 0, 361.220376, 134.830544)" fill="none" stroke-linejoin="miter" d="M 37.501984 37.50217 L 437.090546 37.50217 " stroke="#1f1f1f" stroke-width="75" stroke-opacity="1" stroke-miterlimit="4"/><path stroke-linecap="round" transform="matrix(-0.75, 0, 0, -0.75, 361.126596, 186.575958)" fill="none" stroke-linejoin="miter" d="M 37.50213 37.502321 L 315.491727 37.502321 " stroke="#1f1f1f" stroke-width="75" stroke-opacity="1" stroke-miterlimit="4"/><path stroke-linecap="round" transform="matrix(-0.75, 0, 0, -0.75, 361.126596, 490.768747)" fill="none" stroke-linejoin="miter" d="M 37.50213 37.498957 L 315.491727 37.498957 " stroke="#1f1f1f" stroke-width="75" stroke-opacity="1" stroke-miterlimit="4"/><g clip-path="url(#d6d6019e3a)"><g clip-path="url(#d5434b30f5)"><g transform="matrix(1, 0, 0, 1, 139, 173)"><g clip-path="url(#ae8aa795c7)"><g clip-path="url(#c374158e92)"><g clip-path="url(#532bdd89b6)"><path fill="#1f1f1f" d="M 0.101562 0.136719 L 23.601562 0.136719 L 23.601562 23.636719 L 0.101562 23.636719 Z M 0.101562 0.136719 " fill-opacity="1" fill-rule="nonzero"/></g></g></g></g></g></g><g clip-path="url(#afa3d5fe91)"><g clip-path="url(#3b36e30fdc)"><g transform="matrix(1, 0, 0, 1, 294, 173)"><g clip-path="url(#e168bc6d73)"><g clip-path="url(#e4c83a5ea9)"><g clip-path="url(#d9c28e1352)"><path fill="#1f1f1f" d="M 23.996094 0.136719 L 23.996094 23.636719 L 0.496094 23.636719 L 0.496094 0.136719 Z M 23.996094 0.136719 " fill-opacity="1" fill-rule="nonzero"/></g></g></g></g></g></g><g clip-path="url(#1921b2f8e0)"><g clip-path="url(#556898c289)"><g transform="matrix(1, 0, 0, 1, 139, 423)"><g clip-path="url(#ce85a4e20b)"><g clip-path="url(#7648fb312f)"><g clip-path="url(#cf9fec700a)"><path fill="#1f1f1f" d="M 0.101562 23.511719 L 0.101562 0.0117188 L 23.601562 0.0117188 L 23.601562 23.511719 Z M 0.101562 23.511719 " fill-opacity="1" fill-rule="nonzero"/></g></g></g></g></g></g><g clip-path="url(#16bb18076e)"><g clip-path="url(#415624af1e)"><g transform="matrix(1, 0, 0, 1, 294, 423)"><g clip-path="url(#11a32832a9)"><g clip-path="url(#46548826c8)"><g clip-path="url(#e4493f4193)"><path fill="#1f1f1f" d="M 23.996094 23.511719 L 0.496094 23.511719 L 0.496094 0.0117188 L 23.996094 0.0117188 Z M 23.996094 23.511719 " fill-opacity="1" fill-rule="nonzero"/></g></g></g></g></g></g><path stroke-linecap="round" transform="matrix(-0.131017, 0.738468, -0.738468, -0.131017, 471.05362, 102.197036)" fill="none" stroke-linejoin="miter" d="M 39.500543 39.502533 L 118.86586 39.497553 " stroke="#1f1f1f" stroke-width="79" stroke-opacity="1" stroke-miterlimit="4"/><g clip-path="url(#188543171b)"><g clip-path="url(#65b862a6c9)"><g clip-path="url(#cf2a538b0e)"><g transform="matrix(1, 0, 0, 1, 459, 200)"><g clip-path="url(#493be53265)"><g clip-path="url(#47f62c60c5)"><g clip-path="url(#60be4e0ea5)"><g clip-path="url(#8a3097aec6)"><path fill="#1f1f1f" d="M -6.402344 63.402344 L 1.113281 0.535156 L 63.980469 8.050781 L 56.464844 70.917969 Z M -6.402344 63.402344 " fill-opacity="1" fill-rule="nonzero"/></g></g></g></g></g></g></g></g><g clip-path="url(#68f033d443)"><g clip-path="url(#da2b25d1b9)"><g clip-path="url(#bf4899a78c)"><g transform="matrix(1, 0, 0, 1, 503, 243)"><g clip-path="url(#e4868411de)"><g clip-path="url(#c6460588ec)"><g clip-path="url(#05a9308d55)"><g clip-path="url(#964d92ba5a)"><path fill="#1f1f1f" d="M 13.097656 67.546875 L 0.296875 7.414062 L 60.429688 -5.386719 L 73.226562 54.746094 Z M 13.097656 67.546875 " fill-opacity="1" fill-rule="nonzero"/></g></g></g></g></g></g></g></g><g clip-path="url(#c721bf2880)"><g clip-path="url(#a9cec442d0)"><g clip-path="url(#cbaaef34e1)"><g transform="matrix(1, 0, 0, 1, 412, 181)"><g clip-path="url(#ea4eb14dde)"><g clip-path="url(#4fff9d9f0a)"><g clip-path="url(#59fbf95aad)"><g clip-path="url(#676e0ad15a)"><path fill="#1f1f1f" d="M 50.34375 -20.15625 L 78.792969 29.300781 L 29.335938 57.75 L 0.886719 8.292969 Z M 50.34375 -20.15625 " fill-opacity="1" fill-rule="nonzero"/></g></g></g></g></g></g></g></g><g clip-path="url(#798b23dbf2)"><g clip-path="url(#456a3a6dce)"><g clip-path="url(#ad3a1ed758)"><g transform="matrix(1, 0, 0, 1, 440, 146)"><g clip-path="url(#26ff63e1df)"><g clip-path="url(#8b4c4aa5c2)"><g clip-path="url(#e32d4f0728)"><g clip-path="url(#117251d383)"><path fill="#1f1f1f" d="M 3.425781 46.03125 L 0.597656 1.667969 L 44.964844 -1.15625 L 47.789062 43.207031 Z M 3.425781 46.03125 " fill-opacity="1" fill-rule="nonzero"/></g></g></g></g></g></g></g></g><g clip-path="url(#25b07f53d3)"><g clip-path="url(#0b18f76c3d)"><g clip-path="url(#d74f8bac06)"><g transform="matrix(1, 0, 0, 1, 470, 166)"><g clip-path="url(#fa3a59097c)"><g clip-path="url(#f3e6c3bf99)"><g clip-path="url(#ecba3a6b77)"><g clip-path="url(#817b118313)"><path fill="#1f1f1f" d="M 18.667969 -9.320312 L 34.042969 9.167969 L 15.554688 24.539062 L 0.179688 6.050781 Z M 18.667969 -9.320312 " fill-opacity="1" fill-rule="nonzero"/></g></g></g></g></g></g></g></g><g clip-path="url(#df43c2b6f0)"><g clip-path="url(#971bf4041b)"><g clip-path="url(#8578b9f9a0)"><g transform="matrix(1, 0, 0, 1, 475, 167)"><g clip-path="url(#ae47987510)"><g clip-path="url(#df228f0c21)"><g clip-path="url(#b55ea16b00)"><g clip-path="url(#15a20d36ee)"><path fill="#1f1f1f" d="M 17.058594 -9.132812 L 31.539062 5.347656 L 14.515625 22.371094 L 0.0351562 7.890625 Z M 17.058594 -9.132812 " fill-opacity="1" fill-rule="nonzero"/></g></g></g></g></g></g></g></g><g clip-path="url(#5c48c1a255)"><g clip-path="url(#0c6bb9cd04)"><g clip-path="url(#df4dfcbd00)"><g transform="matrix(1, 0, 0, 1, 496, 168)"><g clip-path="url(#0efd3047c2)"><g clip-path="url(#ed51e6bc46)"><g clip-path="url(#0394427179)"><g clip-path="url(#1965e7cc66)"><path fill="#1f1f1f" d="M 25.996094 13.011719 L 15.289062 30.464844 L -5.230469 17.875 L 5.476562 0.421875 Z M 25.996094 13.011719 " fill-opacity="1" fill-rule="nonzero"/></g></g></g></g></g></g></g></g><g clip-path="url(#0dd1531146)"><g clip-path="url(#dc8757cc63)"><g clip-path="url(#a045431082)"><g transform="matrix(1, 0, 0, 1, 481, 191)"><g clip-path="url(#238fe42af9)"><g clip-path="url(#3e68013c76)"><g clip-path="url(#2dc1f4493b)"><g clip-path="url(#7e1085a8ac)"><path fill="#1f1f1f" d="M -1.636719 63.367188 L 0.367188 0.0859375 L 63.652344 2.089844 L 61.644531 65.375 Z M -1.636719 63.367188 " fill-opacity="1" fill-rule="nonzero"/></g></g></g></g></g></g></g></g><g clip-path="url(#70203e4dc2)"><g clip-path="url(#fbe9e106c4)"><g clip-path="url(#67d8125991)"><g transform="matrix(1, 0, 0, 1, 535, 223)"><g clip-path="url(#945d6e6995)"><g clip-path="url(#640ae1cc33)"><g clip-path="url(#e7fd58b8db)"><g clip-path="url(#38bca6825c)"><path fill="#1f1f1f" d="M 12.304688 -4.332031 L 19.054688 5.941406 L 6.976562 13.878906 L 0.226562 3.605469 Z M 12.304688 -4.332031 " fill-opacity="1" fill-rule="nonzero"/></g></g></g></g></g></g></g></g><g clip-path="url(#9bfc9519a3)"><g clip-path="url(#dc75418ed6)"><g clip-path="url(#cde111173d)"><g transform="matrix(1, 0, 0, 1, 527, 228)"><g clip-path="url(#720d29d423)"><g clip-path="url(#243d35852d)"><g clip-path="url(#45d276a9e4)"><g clip-path="url(#09627e2a73)"><path fill="#1f1f1f" d="M 15.65625 59.628906 L 0.496094 8.085938 L 52.035156 -7.074219 L 67.199219 44.46875 Z M 15.65625 59.628906 " fill-opacity="1" fill-rule="nonzero"/></g></g></g></g></g></g></g></g><path stroke-linecap="round" transform="matrix(0.564686, 0.493588, -0.493588, 0.564686, 465.075508, 169.065069)" fill="none" stroke-linejoin="miter" d="M 17.501532 17.500545 L 188.106683 17.497529 " stroke="#1f1f1f" stroke-width="35" stroke-opacity="1" stroke-miterlimit="4"/><g clip-path="url(#90a14db62c)"><g clip-path="url(#7ee97a933b)"><g transform="matrix(1, 0, 0, 1, 475, 173)"><g clip-path="url(#ba5fb36ad1)"><g clip-path="url(#8a88deb943)"><g clip-path="url(#05cfa705bd)"><path fill="#1f1f1f" d="M 0.0625 0.859375 L 36.417969 0.859375 L 36.417969 37.214844 L 0.0625 37.214844 Z M 0.0625 0.859375 " fill-opacity="1" fill-rule="nonzero"/></g></g></g></g></g></g><g clip-path="url(#23a20fdc05)"><g clip-path="url(#1e85d7a6d6)"><g transform="matrix(1, 0, 0, 1, 521, 227)"><g clip-path="url(#53519e0cbe)"><g clip-path="url(#0a1eaec28d)"><g clip-path="url(#e70a8db488)"><path fill="#1f1f1f" d="M 0.585938 0.765625 L 36.941406 0.765625 L 36.941406 37.121094 L 0.585938 37.121094 Z M 0.585938 0.765625 " fill-opacity="1" fill-rule="nonzero"/></g></g></g></g></g></g><path stroke-linecap="round" transform="matrix(-0.430398, 0.614213, -0.614213, -0.430398, 649.915987, 270.171599)" fill="none" stroke-linejoin="miter" d="M 39.998186 39.99922 L 435.715854 39.999915 " stroke="#1f1f1f" stroke-width="80" stroke-opacity="1" stroke-miterlimit="4"/><path stroke-linecap="round" transform="matrix(0.738871, 0.128722, -0.128722, 0.738871, 576.961318, 241.1945)" fill="none" stroke-linejoin="miter" d="M 29.000971 29.00087 L 43.306621 28.998694 " stroke="#1f1f1f" stroke-width="58" stroke-opacity="1" stroke-miterlimit="4"/><path stroke-linecap="round" transform="matrix(-0.75, 0, 0, -0.75, 670.53021, 572.892351)" fill="none" stroke-linejoin="miter" d="M 39.998615 40.002304 L 303.514253 40.002304 " stroke="#1f1f1f" stroke-width="80" stroke-opacity="1" stroke-miterlimit="4"/><g clip-path="url(#8fc2416250)"><g clip-path="url(#5693833f98)"><g clip-path="url(#71c0ef6ffb)"><g transform="matrix(1, 0, 0, 1, 406, 508)"><g clip-path="url(#1be3df6109)"><g clip-path="url(#6ee8078963)"><g clip-path="url(#9a6c0dbed8)"><g clip-path="url(#c8889f12ef)"><path fill="#1f1f1f" d="M -14.664062 44.058594 L 4.421875 0.777344 L 47.703125 19.863281 L 28.617188 63.144531 Z M -14.664062 44.058594 " fill-opacity="1" fill-rule="nonzero"/></g></g></g></g></g></g></g></g><path stroke-linecap="round" transform="matrix(-0.375, 0.649519, -0.649519, -0.375, 704.395696, 501.302923)" fill="none" stroke-linejoin="miter" d="M 26.500417 26.499527 L 81.042007 26.499573 " stroke="#1f1f1f" stroke-width="53" stroke-opacity="1" stroke-miterlimit="4"/><g clip-path="url(#a4a5e734ba)"><g clip-path="url(#e1aa3bb63f)"><g clip-path="url(#6e383ea6de)"><g transform="matrix(1, 0, 0, 1, 634, 517)"><g clip-path="url(#67e100111c)"><g clip-path="url(#55e5f98a89)"><g clip-path="url(#f86376bb64)"><g clip-path="url(#97c98e4a0f)"><path fill="#1f1f1f" d="M 59.9375 65.1875 L 0.175781 54.722656 L 10.640625 -5.035156 L 70.398438 5.429688 Z M 59.9375 65.1875 " fill-opacity="1" fill-rule="nonzero"/></g></g></g></g></g></g></g></g><g clip-path="url(#2b5ed4d1c2)"><g clip-path="url(#d5aa83a390)"><g clip-path="url(#6339ee834e)"><g transform="matrix(1, 0, 0, 1, 623, 488)"><g clip-path="url(#8ba00a50ad)"><g clip-path="url(#f5142112e0)"><g clip-path="url(#52b4bb6cbc)"><g clip-path="url(#bb0f38c779)"><path fill="#1f1f1f" d="M 62.84375 65.972656 L 0.355469 60.398438 L 5.929688 -2.089844 L 68.417969 3.484375 Z M 62.84375 65.972656 " fill-opacity="1" fill-rule="nonzero"/></g></g></g></g></g></g></g></g><path stroke-linecap="round" transform="matrix(-0.114812, 0.74116, -0.74116, -0.114812, 714.735664, 472.583996)" fill="none" stroke-linejoin="miter" d="M 35.501453 35.501139 L 55.81377 35.501059 " stroke="#1f1f1f" stroke-width="71" stroke-opacity="1" stroke-miterlimit="4"/><path stroke-linecap="round" transform="matrix(-0.749866, -0.0141999, 0.0141999, -0.749866, 703.862248, 440.688238)" fill="none" stroke-linejoin="miter" d="M 37.501815 37.500799 L 226.587757 37.498911 " stroke="#1f1f1f" stroke-width="75" stroke-opacity="1" stroke-miterlimit="4"/><path stroke-linecap="round" transform="matrix(0.026487, -0.749532, 0.749532, 0.026487, 569.706527, 124.50851)" fill="none" stroke-linejoin="miter" d="M 13.998858 13.999397 L 71.425239 13.997365 " stroke="#dfbc99" stroke-width="28" stroke-opacity="1" stroke-miterlimit="4"/><path stroke-linecap="round" transform="matrix(0.517757, -0.542612, 0.542612, 0.517757, 611.556237, 136.868466)" fill="none" stroke-linejoin="miter" d="M 14.001788 14.000031 L 67.749298 14.000029 " stroke="#dfbc99" stroke-width="28" stroke-opacity="1" stroke-miterlimit="4"/><path stroke-linecap="round" transform="matrix(0.75, -0.0000228485, 0.0000228485, 0.75, 630.846476, 168.445821)" fill="none" stroke-linejoin="miter" d="M 14.001148 13.999749 L 66.771984 14.001357 " stroke="#dfbc99" stroke-width="28" stroke-opacity="1" stroke-miterlimit="4"/><g fill="#1f1f1f" fill-opacity="1"><g transform="translate(163.192318, 685.114378)"><g><path d="M 14.1875 -22.109375 L 24.90625 -22.109375 L 24.90625 -33 L 13.90625 -33 C 12.863281 -30.476562 11.625 -28.195312 10.1875 -26.15625 C 9.507812 -25.21875 8.664062 -25.019531 7.65625 -25.5625 C 6.96875 -25.957031 6.570312 -26.367188 6.46875 -26.796875 C 6.363281 -27.234375 6.546875 -27.773438 7.015625 -28.421875 C 8.335938 -30.429688 9.503906 -32.65625 10.515625 -35.09375 C 11.523438 -37.539062 12.332031 -39.914062 12.9375 -42.21875 C 13.226562 -43.4375 14.054688 -43.90625 15.421875 -43.625 C 16.785156 -43.375 17.289062 -42.582031 16.9375 -41.25 C 16.5 -39.8125 16.007812 -38.351562 15.46875 -36.875 L 24.90625 -36.875 L 24.90625 -43.25 C 24.90625 -44.613281 25.59375 -45.296875 26.96875 -45.296875 C 28.332031 -45.296875 29.015625 -44.613281 29.015625 -43.25 L 29.015625 -36.875 L 44.640625 -36.875 C 45.941406 -36.875 46.59375 -36.226562 46.59375 -34.9375 C 46.59375 -33.644531 45.941406 -33 44.640625 -33 L 29.015625 -33 L 29.015625 -22.109375 L 48.53125 -22.109375 C 49.820312 -22.109375 50.46875 -21.460938 50.46875 -20.171875 C 50.46875 -18.835938 49.820312 -18.171875 48.53125 -18.171875 L 35.796875 -18.171875 L 35.796875 -2.3125 C 35.796875 -1.519531 35.945312 -1.007812 36.25 -0.78125 C 36.5625 -0.550781 37.222656 -0.4375 38.234375 -0.4375 C 38.484375 -0.4375 38.910156 -0.4375 39.515625 -0.4375 C 40.128906 -0.4375 40.804688 -0.4375 41.546875 -0.4375 C 42.285156 -0.4375 42.96875 -0.4375 43.59375 -0.4375 C 44.226562 -0.4375 44.707031 -0.4375 45.03125 -0.4375 C 45.675781 -0.4375 46.160156 -0.613281 46.484375 -0.96875 C 46.804688 -1.332031 47.039062 -2.109375 47.1875 -3.296875 C 47.21875 -3.941406 47.332031 -4.628906 47.53125 -5.359375 C 47.726562 -6.097656 48.015625 -6.703125 48.390625 -7.171875 C 48.773438 -7.640625 49.253906 -7.75 49.828125 -7.5 C 50.328125 -7.25 50.648438 -6.695312 50.796875 -5.84375 C 50.941406 -5 50.992188 -4.289062 50.953125 -3.71875 C 50.773438 -1.851562 50.488281 -0.398438 50.09375 0.640625 C 49.695312 1.679688 49.117188 2.410156 48.359375 2.828125 C 47.609375 3.242188 46.601562 3.453125 45.34375 3.453125 C 45.09375 3.453125 44.609375 3.453125 43.890625 3.453125 C 43.171875 3.453125 42.390625 3.453125 41.546875 3.453125 C 40.703125 3.453125 39.925781 3.453125 39.21875 3.453125 C 38.519531 3.453125 38.046875 3.453125 37.796875 3.453125 C 36.210938 3.453125 34.976562 3.28125 34.09375 2.9375 C 33.21875 2.59375 32.617188 2 32.296875 1.15625 C 31.972656 0.3125 31.8125 -0.84375 31.8125 -2.3125 L 31.8125 -18.171875 L 21.625 -18.171875 C 21.257812 -14.898438 20.644531 -11.890625 19.78125 -9.140625 C 18.925781 -6.390625 17.5625 -3.941406 15.6875 -1.796875 C 13.820312 0.335938 11.179688 2.140625 7.765625 3.609375 C 7.148438 3.859375 6.519531 3.972656 5.875 3.953125 C 5.226562 3.941406 4.707031 3.6875 4.3125 3.1875 C 3.738281 2.425781 3.71875 1.757812 4.25 1.1875 C 4.789062 0.613281 5.515625 0.144531 6.421875 -0.21875 C 9.179688 -1.476562 11.304688 -3.003906 12.796875 -4.796875 C 14.296875 -6.597656 15.382812 -8.617188 16.0625 -10.859375 C 16.75 -13.109375 17.21875 -15.546875 17.46875 -18.171875 L 5.453125 -18.171875 C 4.148438 -18.171875 3.5 -18.835938 3.5 -20.171875 C 3.5 -21.460938 4.148438 -22.109375 5.453125 -22.109375 Z M 14.1875 -22.109375 "/></g></g></g><g fill="#1f1f1f" fill-opacity="1"><g transform="translate(255.724262, 685.114378)"><g/></g></g><g fill="#1f1f1f" fill-opacity="1"><g transform="translate(306.415887, 685.114378)"><g><path d="M 4.3125 -22.546875 L 4.3125 -37.203125 C 4.3125 -38.140625 4.597656 -38.894531 5.171875 -39.46875 C 5.753906 -40.039062 6.507812 -40.328125 7.4375 -40.328125 L 15.421875 -40.328125 C 16.359375 -40.328125 17.113281 -40.039062 17.6875 -39.46875 C 18.257812 -38.894531 18.546875 -38.140625 18.546875 -37.203125 L 18.546875 -12.078125 C 18.546875 -11.140625 18.257812 -10.382812 17.6875 -9.8125 C 17.113281 -9.238281 16.359375 -8.953125 15.421875 -8.953125 L 7.4375 -8.953125 C 6.507812 -8.953125 5.753906 -9.238281 5.171875 -9.8125 C 4.597656 -10.382812 4.3125 -11.140625 4.3125 -12.078125 Z M 14.78125 -24.640625 L 14.78125 -35.046875 C 14.78125 -35.984375 14.3125 -36.453125 13.375 -36.453125 L 9.484375 -36.453125 C 8.554688 -36.453125 8.09375 -35.984375 8.09375 -35.046875 L 8.09375 -14.296875 C 8.09375 -13.359375 8.554688 -12.890625 9.484375 -12.890625 L 13.375 -12.890625 C 14.3125 -12.890625 14.78125 -13.359375 14.78125 -14.296875 Z M 40.390625 -37.046875 L 48.90625 -37.046875 C 50.164062 -37.046875 50.796875 -36.414062 50.796875 -35.15625 C 50.796875 -33.863281 50.164062 -33.21875 48.90625 -33.21875 L 28.25 -33.21875 C 27.601562 -31.925781 26.921875 -30.703125 26.203125 -29.546875 C 25.484375 -28.398438 24.75 -27.304688 24 -26.265625 C 23.53125 -25.679688 23.078125 -25.363281 22.640625 -25.3125 C 22.210938 -25.257812 21.691406 -25.46875 21.078125 -25.9375 C 20.472656 -26.4375 20.140625 -26.910156 20.078125 -27.359375 C 20.023438 -27.816406 20.253906 -28.332031 20.765625 -28.90625 C 22.304688 -30.8125 23.695312 -33.003906 24.9375 -35.484375 C 26.175781 -37.960938 27.210938 -40.550781 28.046875 -43.25 C 28.429688 -44.644531 29.273438 -45.179688 30.578125 -44.859375 C 31.941406 -44.535156 32.40625 -43.691406 31.96875 -42.328125 C 31.363281 -40.460938 30.703125 -38.703125 29.984375 -37.046875 Z M 37.53125 -0.546875 L 45.078125 -0.546875 C 45.898438 -0.546875 46.519531 -0.738281 46.9375 -1.125 C 47.351562 -1.519531 47.648438 -2.4375 47.828125 -3.875 C 47.859375 -4.457031 47.972656 -5.085938 48.171875 -5.765625 C 48.367188 -6.453125 48.644531 -7.019531 49 -7.46875 C 49.363281 -7.914062 49.800781 -8.03125 50.3125 -7.8125 C 50.664062 -7.675781 50.941406 -7.363281 51.140625 -6.875 C 51.335938 -6.382812 51.460938 -5.867188 51.515625 -5.328125 C 51.578125 -4.796875 51.585938 -4.332031 51.546875 -3.9375 C 51.296875 -1.851562 50.910156 -0.28125 50.390625 0.78125 C 49.867188 1.84375 49.164062 2.5625 48.28125 2.9375 C 47.40625 3.3125 46.285156 3.5 44.921875 3.5 L 30.140625 3.5 C 27.296875 3.5 25.207031 3.003906 23.875 2.015625 C 22.550781 1.035156 21.890625 -0.316406 21.890625 -2.046875 C 21.890625 -2.585938 21.96875 -3.171875 22.125 -3.796875 C 22.289062 -4.429688 22.660156 -5.207031 23.234375 -6.125 C 23.816406 -7.039062 24.734375 -8.195312 25.984375 -9.59375 C 27.242188 -11 28.953125 -12.71875 31.109375 -14.75 C 33.265625 -16.78125 36.015625 -19.234375 39.359375 -22.109375 L 27.125 -22.109375 C 25.863281 -22.109375 25.234375 -22.738281 25.234375 -24 C 25.234375 -25.25 25.863281 -25.875 27.125 -25.875 L 46.046875 -25.875 C 46.660156 -25.875 47.109375 -25.6875 47.390625 -25.3125 C 47.679688 -24.9375 47.738281 -24.425781 47.5625 -23.78125 C 47.5625 -23.78125 47.550781 -23.769531 47.53125 -23.75 C 47.507812 -23.726562 47.5 -23.71875 47.5 -23.71875 C 43.476562 -20.414062 40.15625 -17.613281 37.53125 -15.3125 C 34.90625 -13.007812 32.816406 -11.113281 31.265625 -9.625 C 29.722656 -8.132812 28.570312 -6.929688 27.8125 -6.015625 C 27.0625 -5.097656 26.578125 -4.378906 26.359375 -3.859375 C 26.148438 -3.335938 26.046875 -2.894531 26.046875 -2.53125 C 26.046875 -1.8125 26.40625 -1.300781 27.125 -1 C 27.84375 -0.695312 28.796875 -0.546875 29.984375 -0.546875 Z M 37.53125 -0.546875 "/></g></g></g><g fill="#1f1f1f" fill-opacity="1"><g transform="translate(398.947831, 685.114378)"><g/></g></g><g fill="#1f1f1f" fill-opacity="1"><g transform="translate(449.639456, 685.114378)"><g><path d="M 26.90625 -8.734375 L 12.671875 -8.734375 L 12.671875 2.421875 C 12.671875 3.753906 12.003906 4.421875 10.671875 4.421875 C 9.347656 4.421875 8.6875 3.753906 8.6875 2.421875 L 8.6875 -8.734375 L 4.3125 -8.734375 C 3.050781 -8.734375 2.421875 -9.363281 2.421875 -10.625 C 2.421875 -11.882812 3.050781 -12.515625 4.3125 -12.515625 L 8.6875 -12.515625 L 8.6875 -29.8125 C 8.6875 -30.75 8.972656 -31.503906 9.546875 -32.078125 C 10.117188 -32.660156 10.875 -32.953125 11.8125 -32.953125 L 24.703125 -32.953125 L 24.703125 -38.234375 L 6.25 -38.234375 C 5 -38.234375 4.375 -38.863281 4.375 -40.125 C 4.375 -41.375 5 -42 6.25 -42 L 47.78125 -42 C 49.03125 -42 49.65625 -41.375 49.65625 -40.125 C 49.65625 -38.863281 49.03125 -38.234375 47.78125 -38.234375 L 28.796875 -38.234375 L 28.796875 -32.953125 L 42.0625 -32.953125 C 43 -32.953125 43.753906 -32.660156 44.328125 -32.078125 C 44.898438 -31.503906 45.1875 -30.75 45.1875 -29.8125 L 45.1875 -12.515625 L 49.71875 -12.515625 C 50.976562 -12.515625 51.609375 -11.882812 51.609375 -10.625 C 51.609375 -9.363281 50.976562 -8.734375 49.71875 -8.734375 L 45.1875 -8.734375 L 45.1875 -0.640625 C 45.1875 0.578125 45.015625 1.519531 44.671875 2.1875 C 44.328125 2.851562 43.707031 3.347656 42.8125 3.671875 C 42.09375 3.921875 41.164062 4.085938 40.03125 4.171875 C 38.90625 4.265625 37.515625 4.332031 35.859375 4.375 C 35.285156 4.375 34.703125 4.265625 34.109375 4.046875 C 33.515625 3.828125 33.109375 3.445312 32.890625 2.90625 C 32.535156 2.007812 32.660156 1.390625 33.265625 1.046875 C 33.878906 0.710938 34.65625 0.5625 35.59375 0.59375 C 36.632812 0.59375 37.539062 0.59375 38.3125 0.59375 C 39.082031 0.59375 39.613281 0.578125 39.90625 0.546875 C 40.40625 0.503906 40.742188 0.398438 40.921875 0.234375 C 41.109375 0.078125 41.203125 -0.234375 41.203125 -0.703125 L 41.203125 -8.734375 Z M 35 -19.203125 L 28.796875 -19.203125 L 28.796875 -12.515625 L 41.203125 -12.515625 L 41.203125 -19.203125 Z M 18.65625 -12.515625 L 24.703125 -12.515625 L 24.703125 -19.203125 L 12.671875 -19.203125 L 12.671875 -12.515625 Z M 35 -29.21875 L 28.796875 -29.21875 L 28.796875 -22.75 L 41.203125 -22.75 L 41.203125 -27.828125 C 41.203125 -28.753906 40.734375 -29.21875 39.796875 -29.21875 Z M 18.65625 -22.75 L 24.703125 -22.75 L 24.703125 -29.21875 L 14.078125 -29.21875 C 13.140625 -29.21875 12.671875 -28.753906 12.671875 -27.828125 L 12.671875 -22.75 Z M 18.65625 -22.75 "/></g></g></g><g fill="#1f1f1f" fill-opacity="1"><g transform="translate(542.171411, 685.114378)"><g/></g></g><g fill="#1f1f1f" fill-opacity="1"><g transform="translate(592.863013, 685.114378)"><g><path d="M 36.609375 -18.4375 L 42.8125 -18.4375 C 43.75 -18.4375 44.21875 -18.90625 44.21875 -19.84375 L 44.21875 -27.015625 L 29.015625 -27.015625 L 29.015625 -19.84375 C 29.015625 -18.90625 29.476562 -18.4375 30.40625 -18.4375 Z M 12.625 -28.953125 L 18.875 -28.953125 C 19.914062 -28.953125 20.4375 -28.429688 20.4375 -27.390625 C 20.4375 -26.316406 19.914062 -25.78125 18.875 -25.78125 L 6.359375 -25.78125 C 5.316406 -25.78125 4.796875 -26.316406 4.796875 -27.390625 C 4.796875 -28.429688 5.316406 -28.953125 6.359375 -28.953125 Z M 12.625 -43.40625 L 18.609375 -43.40625 C 19.679688 -43.40625 20.21875 -42.867188 20.21875 -41.796875 C 20.21875 -40.710938 19.679688 -40.171875 18.609375 -40.171875 L 6.625 -40.171875 C 5.550781 -40.171875 5.015625 -40.710938 5.015625 -41.796875 C 5.015625 -42.867188 5.550781 -43.40625 6.625 -43.40625 Z M 12.625 -21.78125 L 18.8125 -21.78125 C 19.894531 -21.78125 20.4375 -21.242188 20.4375 -20.171875 C 20.4375 -19.085938 19.894531 -18.546875 18.8125 -18.546875 L 6.421875 -18.546875 C 5.335938 -18.546875 4.796875 -19.085938 4.796875 -20.171875 C 4.796875 -21.242188 5.335938 -21.78125 6.421875 -21.78125 Z M 12.234375 -36.34375 L 20.546875 -36.34375 C 21.660156 -36.34375 22.21875 -35.785156 22.21875 -34.671875 C 22.21875 -33.523438 21.660156 -32.953125 20.546875 -32.953125 L 3.984375 -32.953125 C 2.867188 -32.953125 2.3125 -33.523438 2.3125 -34.671875 C 2.3125 -35.785156 2.867188 -36.34375 3.984375 -36.34375 Z M 4.75 -5.390625 L 4.75 -11.375 C 4.75 -12.3125 5.035156 -13.066406 5.609375 -13.640625 C 6.179688 -14.210938 6.9375 -14.5 7.875 -14.5 L 17.359375 -14.5 C 18.296875 -14.5 19.050781 -14.210938 19.625 -13.640625 C 20.195312 -13.066406 20.484375 -12.3125 20.484375 -11.375 L 20.484375 0.8125 C 22.859375 -0.195312 24.675781 -1.445312 25.9375 -2.9375 C 27.195312 -4.425781 28.101562 -6.164062 28.65625 -8.15625 C 29.21875 -10.15625 29.570312 -12.394531 29.71875 -14.875 L 27.34375 -14.875 C 26.726562 -14.875 26.234375 -15.0625 25.859375 -15.4375 C 25.484375 -15.820312 25.296875 -16.320312 25.296875 -16.9375 L 25.296875 -28.046875 C 25.253906 -27.972656 25.195312 -27.890625 25.125 -27.796875 C 25.050781 -27.703125 24.976562 -27.617188 24.90625 -27.546875 C 24.082031 -26.722656 23.203125 -26.632812 22.265625 -27.28125 C 21.117188 -28.144531 21.082031 -29.117188 22.15625 -30.203125 C 23.132812 -31.316406 24.023438 -32.535156 24.828125 -33.859375 C 25.640625 -35.191406 26.316406 -36.503906 26.859375 -37.796875 C 27.316406 -38.910156 28.160156 -39.304688 29.390625 -38.984375 C 30.753906 -38.628906 31.164062 -37.820312 30.625 -36.5625 C 29.726562 -34.550781 28.613281 -32.570312 27.28125 -30.625 L 46.046875 -30.625 C 45.078125 -31.988281 44.148438 -33.460938 43.265625 -35.046875 C 42.390625 -36.628906 41.609375 -38.25 40.921875 -39.90625 L 31.8125 -39.90625 C 30.59375 -39.90625 29.984375 -40.535156 29.984375 -41.796875 C 29.984375 -43.015625 30.59375 -43.625 31.8125 -43.625 L 41.203125 -43.625 C 42.890625 -43.625 44.035156 -42.796875 44.640625 -41.140625 C 45.398438 -39.273438 46.316406 -37.492188 47.390625 -35.796875 C 48.472656 -34.109375 49.585938 -32.617188 50.734375 -31.328125 C 51.347656 -30.753906 51.546875 -30.175781 51.328125 -29.59375 C 51.117188 -29.019531 50.671875 -28.484375 49.984375 -27.984375 C 49.335938 -27.441406 48.726562 -27.460938 48.15625 -28.046875 L 48.09375 -28.09375 L 48.09375 -18.015625 C 48.09375 -17.078125 47.804688 -16.316406 47.234375 -15.734375 C 46.660156 -15.160156 45.90625 -14.875 44.96875 -14.875 L 42.21875 -14.875 L 42.21875 -1.125 C 42.21875 -0.476562 42.289062 -0.078125 42.4375 0.078125 C 42.582031 0.242188 42.941406 0.328125 43.515625 0.328125 C 43.691406 0.328125 44.015625 0.328125 44.484375 0.328125 C 44.953125 0.328125 45.445312 0.328125 45.96875 0.328125 C 46.488281 0.328125 46.859375 0.328125 47.078125 0.328125 C 47.472656 0.328125 47.757812 0.203125 47.9375 -0.046875 C 48.113281 -0.304688 48.257812 -0.882812 48.375 -1.78125 C 48.40625 -2.394531 48.5 -3.050781 48.65625 -3.75 C 48.820312 -4.445312 49.078125 -5.007812 49.421875 -5.4375 C 49.765625 -5.875 50.203125 -5.96875 50.734375 -5.71875 C 51.242188 -5.46875 51.5625 -4.914062 51.6875 -4.0625 C 51.8125 -3.21875 51.851562 -2.53125 51.8125 -2 C 51.5625 0.375 51.117188 1.960938 50.484375 2.765625 C 49.859375 3.578125 48.863281 3.984375 47.5 3.984375 C 47.25 3.984375 46.804688 3.984375 46.171875 3.984375 C 45.546875 3.984375 44.921875 3.984375 44.296875 3.984375 C 43.671875 3.984375 43.226562 3.984375 42.96875 3.984375 C 41.132812 3.984375 39.910156 3.625 39.296875 2.90625 C 38.691406 2.1875 38.390625 0.84375 38.390625 -1.125 L 38.390625 -14.875 L 33.703125 -14.875 C 33.484375 -12.1875 33.09375 -9.742188 32.53125 -7.546875 C 31.976562 -5.359375 31.117188 -3.410156 29.953125 -1.703125 C 28.785156 0.00390625 27.160156 1.488281 25.078125 2.75 C 24.035156 3.25 23.082031 3.410156 22.21875 3.234375 C 21.351562 3.054688 20.671875 2.585938 20.171875 1.828125 C 20.054688 1.722656 19.953125 1.613281 19.859375 1.5 C 19.773438 1.394531 19.679688 1.304688 19.578125 1.234375 L 7.875 1.234375 C 6.9375 1.234375 6.179688 0.945312 5.609375 0.375 C 5.035156 -0.195312 4.75 -0.953125 4.75 -1.890625 Z M 16.984375 -6.578125 L 16.984375 -9.703125 C 16.984375 -10.640625 16.515625 -11.109375 15.578125 -11.109375 L 9.703125 -11.109375 C 8.765625 -11.109375 8.296875 -10.640625 8.296875 -9.703125 L 8.296875 -3.5 C 8.296875 -2.570312 8.765625 -2.109375 9.703125 -2.109375 L 16.984375 -2.109375 Z M 16.984375 -6.578125 "/></g></g></g><g fill="#b88048" fill-opacity="1"><g transform="translate(129.305328, 742.568311)"><g><path d="M 2.828125 -10.25 L 2.828125 -18.90625 C 2.828125 -19.382812 2.972656 -19.773438 3.265625 -20.078125 C 3.566406 -20.378906 3.960938 -20.53125 4.453125 -20.53125 L 13.546875 -20.53125 C 14.273438 -20.53125 14.640625 -20.164062 14.640625 -19.4375 C 14.640625 -18.707031 14.273438 -18.34375 13.546875 -18.34375 L 5.40625 -18.34375 L 5.40625 -11.90625 L 12.09375 -11.90625 C 12.820312 -11.90625 13.1875 -11.539062 13.1875 -10.8125 C 13.1875 -10.0625 12.820312 -9.6875 12.09375 -9.6875 L 5.40625 -9.6875 L 5.40625 -2.21875 L 13.859375 -2.21875 C 14.585938 -2.21875 14.953125 -1.851562 14.953125 -1.125 C 14.953125 -0.375 14.585938 0 13.859375 0 L 4.453125 0 C 3.960938 0 3.566406 -0.144531 3.265625 -0.4375 C 2.972656 -0.738281 2.828125 -1.132812 2.828125 -1.625 Z M 2.828125 -10.25 "/></g></g></g><g fill="#b88048" fill-opacity="1"><g transform="translate(152.851042, 742.568311)"><g><path d="M 13.40625 -10.25 L 16.375 -1.5625 C 16.75 -0.519531 16.378906 0 15.265625 0 C 14.535156 0 14.054688 -0.351562 13.828125 -1.0625 L 12.203125 -6.265625 L 4.703125 -6.265625 L 3.03125 -0.984375 C 2.820312 -0.328125 2.375 0 1.6875 0 C 0.632812 0 0.273438 -0.492188 0.609375 -1.484375 L 6.640625 -19.296875 C 6.765625 -19.671875 6.976562 -19.96875 7.28125 -20.1875 C 7.59375 -20.414062 7.945312 -20.53125 8.34375 -20.53125 L 8.65625 -20.53125 C 9.039062 -20.53125 9.382812 -20.414062 9.6875 -20.1875 C 10 -19.96875 10.222656 -19.671875 10.359375 -19.296875 Z M 5.859375 -9.890625 L 5.34375 -8.3125 L 11.5625 -8.3125 L 10.578125 -11.484375 C 10.210938 -12.640625 9.859375 -13.785156 9.515625 -14.921875 C 9.179688 -16.054688 8.847656 -17.222656 8.515625 -18.421875 L 8.40625 -18.421875 C 8.082031 -17.222656 7.753906 -16.054688 7.421875 -14.921875 C 7.085938 -13.785156 6.734375 -12.640625 6.359375 -11.484375 Z M 5.859375 -9.890625 "/></g></g></g><g fill="#b88048" fill-opacity="1"><g transform="translate(176.928689, 742.568311)"><g><path d="M 7.078125 -9.15625 L 7.078125 -18.34375 L 1.953125 -18.34375 C 1.234375 -18.34375 0.875 -18.707031 0.875 -19.4375 C 0.875 -20.164062 1.234375 -20.53125 1.953125 -20.53125 L 14.8125 -20.53125 C 15.539062 -20.53125 15.90625 -20.164062 15.90625 -19.4375 C 15.90625 -18.707031 15.539062 -18.34375 14.8125 -18.34375 L 9.6875 -18.34375 L 9.6875 -1.28125 C 9.6875 -0.425781 9.257812 0 8.40625 0 C 7.519531 0 7.078125 -0.425781 7.078125 -1.28125 Z M 7.078125 -9.15625 "/></g></g></g><g fill="#b88048" fill-opacity="1"><g transform="translate(200.754543, 742.568311)"><g/></g></g><g fill="#b88048" fill-opacity="1"><g transform="translate(214.081656, 742.568311)"><g/></g></g><g fill="#b88048" fill-opacity="1"><g transform="translate(227.408769, 742.568311)"><g/></g></g><g fill="#b88048" fill-opacity="1"><g transform="translate(240.738916, 742.568311)"><g><path d="M 2.828125 -10.25 L 2.828125 -18.90625 C 2.828125 -19.382812 2.972656 -19.773438 3.265625 -20.078125 C 3.566406 -20.378906 3.960938 -20.53125 4.453125 -20.53125 L 13.546875 -20.53125 C 14.273438 -20.53125 14.640625 -20.164062 14.640625 -19.4375 C 14.640625 -18.707031 14.273438 -18.34375 13.546875 -18.34375 L 5.40625 -18.34375 L 5.40625 -11.390625 L 12.15625 -11.390625 C 12.882812 -11.390625 13.25 -11.023438 13.25 -10.296875 C 13.25 -9.578125 12.882812 -9.21875 12.15625 -9.21875 L 5.40625 -9.21875 L 5.40625 -1.28125 C 5.40625 -0.425781 4.972656 0 4.109375 0 C 3.253906 0 2.828125 -0.425781 2.828125 -1.28125 Z M 2.828125 -10.25 "/></g></g></g><g fill="#b88048" fill-opacity="1"><g transform="translate(263.24878, 742.568311)"><g><path d="M 5.40625 -10.25 L 5.40625 -1.203125 C 5.40625 -0.847656 5.296875 -0.554688 5.078125 -0.328125 C 4.867188 -0.109375 4.578125 0 4.203125 0 L 3.390625 0 C 3.015625 0 2.828125 -0.1875 2.828125 -0.5625 L 2.828125 -19.234375 C 2.828125 -20.097656 3.253906 -20.53125 4.109375 -20.53125 C 4.972656 -20.53125 5.40625 -20.097656 5.40625 -19.234375 Z M 5.40625 -10.25 "/></g></g></g><g fill="#b88048" fill-opacity="1"><g transform="translate(278.507633, 742.568311)"><g><path d="M 5.40625 -14.59375 L 5.40625 -10.78125 L 8.84375 -10.78125 C 10.445312 -10.78125 11.675781 -11.109375 12.53125 -11.765625 C 13.394531 -12.429688 13.828125 -13.4375 13.828125 -14.78125 C 13.828125 -16.125 13.394531 -17.066406 12.53125 -17.609375 C 11.675781 -18.148438 10.445312 -18.421875 8.84375 -18.421875 L 5.40625 -18.421875 Z M 2.828125 -10.25 L 2.828125 -18.90625 C 2.828125 -19.382812 2.972656 -19.773438 3.265625 -20.078125 C 3.566406 -20.378906 3.960938 -20.53125 4.453125 -20.53125 L 9.234375 -20.53125 C 10.640625 -20.53125 11.878906 -20.347656 12.953125 -19.984375 C 14.023438 -19.617188 14.867188 -19.015625 15.484375 -18.171875 C 16.097656 -17.328125 16.40625 -16.195312 16.40625 -14.78125 C 16.40625 -13.175781 15.976562 -11.890625 15.125 -10.921875 C 14.28125 -9.960938 13.164062 -9.316406 11.78125 -8.984375 L 16.125 -1.484375 C 16.382812 -1.035156 16.441406 -0.675781 16.296875 -0.40625 C 16.148438 -0.132812 15.8125 0 15.28125 0 L 15.203125 0 C 14.867188 0 14.546875 -0.0859375 14.234375 -0.265625 C 13.929688 -0.441406 13.695312 -0.679688 13.53125 -0.984375 L 9.09375 -8.703125 L 5.40625 -8.703125 L 5.40625 -1.28125 C 5.40625 -0.425781 4.972656 0 4.109375 0 C 3.253906 0 2.828125 -0.425781 2.828125 -1.28125 Z M 2.828125 -10.25 "/></g></g></g><g fill="#b88048" fill-opacity="1"><g transform="translate(303.341174, 742.568311)"><g><path d="M 9.796875 -11.5625 L 11.25 -10.953125 C 12.050781 -10.609375 12.769531 -10.203125 13.40625 -9.734375 C 14.039062 -9.273438 14.546875 -8.703125 14.921875 -8.015625 C 15.296875 -7.335938 15.484375 -6.484375 15.484375 -5.453125 C 15.484375 -4.378906 15.195312 -3.398438 14.625 -2.515625 C 14.0625 -1.640625 13.257812 -0.941406 12.21875 -0.421875 C 11.1875 0.0976562 9.953125 0.359375 8.515625 0.359375 C 7.265625 0.359375 6.097656 0.15625 5.015625 -0.25 C 3.929688 -0.664062 2.96875 -1.226562 2.125 -1.9375 C 1.625 -2.414062 1.609375 -2.9375 2.078125 -3.5 C 2.597656 -4.132812 3.1875 -4.160156 3.84375 -3.578125 C 4.507812 -3.054688 5.242188 -2.644531 6.046875 -2.34375 C 6.847656 -2.050781 7.679688 -1.90625 8.546875 -1.90625 C 9.898438 -1.90625 10.957031 -2.210938 11.71875 -2.828125 C 12.476562 -3.441406 12.859375 -4.242188 12.859375 -5.234375 C 12.859375 -5.941406 12.707031 -6.507812 12.40625 -6.9375 C 12.101562 -7.375 11.691406 -7.738281 11.171875 -8.03125 C 10.648438 -8.332031 10.0625 -8.625 9.40625 -8.90625 L 7.921875 -9.546875 L 6.46875 -10.1875 C 5.832031 -10.46875 5.191406 -10.828125 4.546875 -11.265625 C 3.898438 -11.703125 3.363281 -12.257812 2.9375 -12.9375 C 2.507812 -13.625 2.296875 -14.460938 2.296875 -15.453125 C 2.296875 -16.515625 2.570312 -17.453125 3.125 -18.265625 C 3.6875 -19.078125 4.457031 -19.71875 5.4375 -20.1875 C 6.425781 -20.65625 7.535156 -20.890625 8.765625 -20.890625 C 9.804688 -20.890625 10.78125 -20.71875 11.6875 -20.375 C 12.59375 -20.03125 13.390625 -19.578125 14.078125 -19.015625 C 14.546875 -18.585938 14.566406 -18.109375 14.140625 -17.578125 C 13.671875 -17.003906 13.148438 -16.953125 12.578125 -17.421875 C 12.046875 -17.785156 11.460938 -18.078125 10.828125 -18.296875 C 10.203125 -18.515625 9.515625 -18.625 8.765625 -18.625 C 7.609375 -18.625 6.675781 -18.359375 5.96875 -17.828125 C 5.269531 -17.296875 4.921875 -16.570312 4.921875 -15.65625 C 4.921875 -14.976562 5.09375 -14.429688 5.4375 -14.015625 C 5.789062 -13.597656 6.234375 -13.25 6.765625 -12.96875 C 7.296875 -12.6875 7.820312 -12.429688 8.34375 -12.203125 Z M 9.796875 -11.5625 "/></g></g></g><g fill="#b88048" fill-opacity="1"><g transform="translate(327.082868, 742.568311)"><g><path d="M 7.078125 -9.15625 L 7.078125 -18.34375 L 1.953125 -18.34375 C 1.234375 -18.34375 0.875 -18.707031 0.875 -19.4375 C 0.875 -20.164062 1.234375 -20.53125 1.953125 -20.53125 L 14.8125 -20.53125 C 15.539062 -20.53125 15.90625 -20.164062 15.90625 -19.4375 C 15.90625 -18.707031 15.539062 -18.34375 14.8125 -18.34375 L 9.6875 -18.34375 L 9.6875 -1.28125 C 9.6875 -0.425781 9.257812 0 8.40625 0 C 7.519531 0 7.078125 -0.425781 7.078125 -1.28125 Z M 7.078125 -9.15625 "/></g></g></g><g fill="#b88048" fill-opacity="1"><g transform="translate(350.90855, 742.568311)"><g/></g></g><g fill="#b88048" fill-opacity="1"><g transform="translate(364.235664, 742.568311)"><g><path d="M 3.53125 2.265625 C 4.03125 1.578125 4.28125 0.832031 4.28125 0.03125 L 3.96875 0.0625 C 3.46875 0.0625 3.03125 -0.09375 2.65625 -0.40625 C 2.28125 -0.726562 2.09375 -1.171875 2.09375 -1.734375 C 2.09375 -2.296875 2.285156 -2.734375 2.671875 -3.046875 C 3.054688 -3.367188 3.507812 -3.53125 4.03125 -3.53125 C 4.707031 -3.53125 5.234375 -3.265625 5.609375 -2.734375 C 5.992188 -2.203125 6.1875 -1.46875 6.1875 -0.53125 C 6.1875 0.789062 5.820312 1.96875 5.09375 3 C 4.53125 3.78125 3.796875 4.421875 2.890625 4.921875 C 2.359375 5.203125 1.992188 5.082031 1.796875 4.5625 C 1.609375 4.0625 1.753906 3.679688 2.234375 3.421875 C 2.742188 3.117188 3.175781 2.734375 3.53125 2.265625 Z M 3.53125 2.265625 "/></g></g></g><g fill="#b88048" fill-opacity="1"><g transform="translate(379.078757, 742.568311)"><g/></g></g><g fill="#b88048" fill-opacity="1"><g transform="translate(392.40587, 742.568311)"><g/></g></g><g fill="#b88048" fill-opacity="1"><g transform="translate(405.732983, 742.568311)"><g/></g></g><g fill="#b88048" fill-opacity="1"><g transform="translate(419.06313, 742.568311)"><g><path d="M 7.078125 -9.15625 L 7.078125 -18.34375 L 1.953125 -18.34375 C 1.234375 -18.34375 0.875 -18.707031 0.875 -19.4375 C 0.875 -20.164062 1.234375 -20.53125 1.953125 -20.53125 L 14.8125 -20.53125 C 15.539062 -20.53125 15.90625 -20.164062 15.90625 -19.4375 C 15.90625 -18.707031 15.539062 -18.34375 14.8125 -18.34375 L 9.6875 -18.34375 L 9.6875 -1.28125 C 9.6875 -0.425781 9.257812 0 8.40625 0 C 7.519531 0 7.078125 -0.425781 7.078125 -1.28125 Z M 7.078125 -9.15625 "/></g></g></g><g fill="#b88048" fill-opacity="1"><g transform="translate(442.888812, 742.568311)"><g><path d="M 13.40625 -10.25 L 16.375 -1.5625 C 16.75 -0.519531 16.378906 0 15.265625 0 C 14.535156 0 14.054688 -0.351562 13.828125 -1.0625 L 12.203125 -6.265625 L 4.703125 -6.265625 L 3.03125 -0.984375 C 2.820312 -0.328125 2.375 0 1.6875 0 C 0.632812 0 0.273438 -0.492188 0.609375 -1.484375 L 6.640625 -19.296875 C 6.765625 -19.671875 6.976562 -19.96875 7.28125 -20.1875 C 7.59375 -20.414062 7.945312 -20.53125 8.34375 -20.53125 L 8.65625 -20.53125 C 9.039062 -20.53125 9.382812 -20.414062 9.6875 -20.1875 C 10 -19.96875 10.222656 -19.671875 10.359375 -19.296875 Z M 5.859375 -9.890625 L 5.34375 -8.3125 L 11.5625 -8.3125 L 10.578125 -11.484375 C 10.210938 -12.640625 9.859375 -13.785156 9.515625 -14.921875 C 9.179688 -16.054688 8.847656 -17.222656 8.515625 -18.421875 L 8.40625 -18.421875 C 8.082031 -17.222656 7.753906 -16.054688 7.421875 -14.921875 C 7.085938 -13.785156 6.734375 -12.640625 6.359375 -11.484375 Z M 5.859375 -9.890625 "/></g></g></g><g fill="#b88048" fill-opacity="1"><g transform="translate(466.966459, 742.568311)"><g><path d="M 2.828125 -10.25 L 2.828125 -19.234375 C 2.828125 -20.097656 3.253906 -20.53125 4.109375 -20.53125 C 4.972656 -20.53125 5.40625 -20.097656 5.40625 -19.234375 L 5.40625 -2.21875 L 13.296875 -2.21875 C 14.023438 -2.21875 14.390625 -1.851562 14.390625 -1.125 C 14.390625 -0.375 14.023438 0 13.296875 0 L 4.453125 0 C 3.960938 0 3.566406 -0.144531 3.265625 -0.4375 C 2.972656 -0.738281 2.828125 -1.132812 2.828125 -1.625 Z M 2.828125 -10.25 "/></g></g></g><g fill="#b88048" fill-opacity="1"><g transform="translate(489.224358, 742.568311)"><g><path d="M 2.828125 -10.25 L 2.828125 -19.234375 C 2.828125 -20.097656 3.253906 -20.53125 4.109375 -20.53125 C 4.972656 -20.53125 5.40625 -20.097656 5.40625 -19.234375 L 5.40625 -10.21875 L 5.453125 -10.21875 L 13.4375 -19.796875 C 13.863281 -20.285156 14.390625 -20.53125 15.015625 -20.53125 L 16.359375 -20.53125 C 16.785156 -20.53125 16.859375 -20.359375 16.578125 -20.015625 L 10.5625 -12.734375 L 17.140625 -1.453125 C 17.398438 -1.023438 17.445312 -0.675781 17.28125 -0.40625 C 17.125 -0.132812 16.796875 0 16.296875 0 L 16.21875 0 C 15.875 0 15.546875 -0.0859375 15.234375 -0.265625 C 14.929688 -0.441406 14.695312 -0.679688 14.53125 -0.984375 L 8.9375 -10.703125 L 5.40625 -6.5 L 5.40625 -1.28125 C 5.40625 -0.425781 4.972656 0 4.109375 0 C 3.253906 0 2.828125 -0.425781 2.828125 -1.28125 Z M 2.828125 -10.25 "/></g></g></g><g fill="#b88048" fill-opacity="1"><g transform="translate(514.371715, 742.568311)"><g/></g></g><g fill="#b88048" fill-opacity="1"><g transform="translate(527.698828, 742.568311)"><g/></g></g><g fill="#b88048" fill-opacity="1"><g transform="translate(541.025941, 742.568311)"><g/></g></g><g fill="#b88048" fill-opacity="1"><g transform="translate(554.356088, 742.568311)"><g><path d="M 2.828125 -10.25 L 2.828125 -19.234375 C 2.828125 -20.097656 3.253906 -20.53125 4.109375 -20.53125 C 4.972656 -20.53125 5.40625 -20.097656 5.40625 -19.234375 L 5.40625 -2.21875 L 13.296875 -2.21875 C 14.023438 -2.21875 14.390625 -1.851562 14.390625 -1.125 C 14.390625 -0.375 14.023438 0 13.296875 0 L 4.453125 0 C 3.960938 0 3.566406 -0.144531 3.265625 -0.4375 C 2.972656 -0.738281 2.828125 -1.132812 2.828125 -1.625 Z M 2.828125 -10.25 "/></g></g></g><g fill="#b88048" fill-opacity="1"><g transform="translate(576.613987, 742.568311)"><g><path d="M 13.40625 -10.25 L 16.375 -1.5625 C 16.75 -0.519531 16.378906 0 15.265625 0 C 14.535156 0 14.054688 -0.351562 13.828125 -1.0625 L 12.203125 -6.265625 L 4.703125 -6.265625 L 3.03125 -0.984375 C 2.820312 -0.328125 2.375 0 1.6875 0 C 0.632812 0 0.273438 -0.492188 0.609375 -1.484375 L 6.640625 -19.296875 C 6.765625 -19.671875 6.976562 -19.96875 7.28125 -20.1875 C 7.59375 -20.414062 7.945312 -20.53125 8.34375 -20.53125 L 8.65625 -20.53125 C 9.039062 -20.53125 9.382812 -20.414062 9.6875 -20.1875 C 10 -19.96875 10.222656 -19.671875 10.359375 -19.296875 Z M 5.859375 -9.890625 L 5.34375 -8.3125 L 11.5625 -8.3125 L 10.578125 -11.484375 C 10.210938 -12.640625 9.859375 -13.785156 9.515625 -14.921875 C 9.179688 -16.054688 8.847656 -17.222656 8.515625 -18.421875 L 8.40625 -18.421875 C 8.082031 -17.222656 7.753906 -16.054688 7.421875 -14.921875 C 7.085938 -13.785156 6.734375 -12.640625 6.359375 -11.484375 Z M 5.859375 -9.890625 "/></g></g></g><g fill="#b88048" fill-opacity="1"><g transform="translate(600.691634, 742.568311)"><g><path d="M 7.078125 -9.15625 L 7.078125 -18.34375 L 1.953125 -18.34375 C 1.234375 -18.34375 0.875 -18.707031 0.875 -19.4375 C 0.875 -20.164062 1.234375 -20.53125 1.953125 -20.53125 L 14.8125 -20.53125 C 15.539062 -20.53125 15.90625 -20.164062 15.90625 -19.4375 C 15.90625 -18.707031 15.539062 -18.34375 14.8125 -18.34375 L 9.6875 -18.34375 L 9.6875 -1.28125 C 9.6875 -0.425781 9.257812 0 8.40625 0 C 7.519531 0 7.078125 -0.425781 7.078125 -1.28125 Z M 7.078125 -9.15625 "/></g></g></g><g fill="#b88048" fill-opacity="1"><g transform="translate(624.517316, 742.568311)"><g><path d="M 2.828125 -10.25 L 2.828125 -18.90625 C 2.828125 -19.382812 2.972656 -19.773438 3.265625 -20.078125 C 3.566406 -20.378906 3.960938 -20.53125 4.453125 -20.53125 L 13.546875 -20.53125 C 14.273438 -20.53125 14.640625 -20.164062 14.640625 -19.4375 C 14.640625 -18.707031 14.273438 -18.34375 13.546875 -18.34375 L 5.40625 -18.34375 L 5.40625 -11.90625 L 12.09375 -11.90625 C 12.820312 -11.90625 13.1875 -11.539062 13.1875 -10.8125 C 13.1875 -10.0625 12.820312 -9.6875 12.09375 -9.6875 L 5.40625 -9.6875 L 5.40625 -2.21875 L 13.859375 -2.21875 C 14.585938 -2.21875 14.953125 -1.851562 14.953125 -1.125 C 14.953125 -0.375 14.585938 0 13.859375 0 L 4.453125 0 C 3.960938 0 3.566406 -0.144531 3.265625 -0.4375 C 2.972656 -0.738281 2.828125 -1.132812 2.828125 -1.625 Z M 2.828125 -10.25 "/></g></g></g><g fill="#b88048" fill-opacity="1"><g transform="translate(648.06303, 742.568311)"><g><path d="M 5.40625 -14.59375 L 5.40625 -10.78125 L 8.84375 -10.78125 C 10.445312 -10.78125 11.675781 -11.109375 12.53125 -11.765625 C 13.394531 -12.429688 13.828125 -13.4375 13.828125 -14.78125 C 13.828125 -16.125 13.394531 -17.066406 12.53125 -17.609375 C 11.675781 -18.148438 10.445312 -18.421875 8.84375 -18.421875 L 5.40625 -18.421875 Z M 2.828125 -10.25 L 2.828125 -18.90625 C 2.828125 -19.382812 2.972656 -19.773438 3.265625 -20.078125 C 3.566406 -20.378906 3.960938 -20.53125 4.453125 -20.53125 L 9.234375 -20.53125 C 10.640625 -20.53125 11.878906 -20.347656 12.953125 -19.984375 C 14.023438 -19.617188 14.867188 -19.015625 15.484375 -18.171875 C 16.097656 -17.328125 16.40625 -16.195312 16.40625 -14.78125 C 16.40625 -13.175781 15.976562 -11.890625 15.125 -10.921875 C 14.28125 -9.960938 13.164062 -9.316406 11.78125 -8.984375 L 16.125 -1.484375 C 16.382812 -1.035156 16.441406 -0.675781 16.296875 -0.40625 C 16.148438 -0.132812 15.8125 0 15.28125 0 L 15.203125 0 C 14.867188 0 14.546875 -0.0859375 14.234375 -0.265625 C 13.929688 -0.441406 13.695312 -0.679688 13.53125 -0.984375 L 9.09375 -8.703125 L 5.40625 -8.703125 L 5.40625 -1.28125 C 5.40625 -0.425781 4.972656 0 4.109375 0 C 3.253906 0 2.828125 -0.425781 2.828125 -1.28125 Z M 2.828125 -10.25 "/></g></g></g><g fill="#b88048" fill-opacity="1"><g transform="translate(672.896571, 742.568311)"><g><path d="M 2.578125 -3 C 2.929688 -3.351562 3.367188 -3.53125 3.890625 -3.53125 C 4.410156 -3.53125 4.847656 -3.351562 5.203125 -3 C 5.554688 -2.644531 5.734375 -2.164062 5.734375 -1.5625 C 5.734375 -0.988281 5.550781 -0.523438 5.1875 -0.171875 C 4.820312 0.179688 4.390625 0.359375 3.890625 0.359375 C 3.367188 0.359375 2.929688 0.179688 2.578125 -0.171875 C 2.222656 -0.523438 2.046875 -0.988281 2.046875 -1.5625 C 2.046875 -2.164062 2.222656 -2.644531 2.578125 -3 Z M 2.578125 -3 "/></g></g></g></svg>